<svg width="7" height="12" viewBox="0 0 7 12" fill="none" xmlns="http://www.w3.org/2000/svg">
    <path d="M6.81097 5.538L1.54498 0.272005C1.42334 0.150851 1.25865 0.0828285 1.08698 0.0828285C0.915296 0.0828285 0.750611 0.150851 0.628975 0.272005L0.240974 0.660006C0.119576 0.781512 0.051384 0.946246 0.051384 1.11801C0.051384 1.28977 0.119576 1.4545 0.240974 1.57601L4.66297 5.998L0.235977 10.425C0.114823 10.5466 0.0467987 10.7113 0.0467987 10.883C0.0467987 11.0547 0.114823 11.2194 0.235977 11.341L0.623978 11.729C0.745614 11.8502 0.910291 11.9182 1.08197 11.9182C1.25365 11.9182 1.41833 11.8502 1.53997 11.729L6.81097 6.45701C6.93207 6.33473 7 6.1696 7 5.99751C7 5.82541 6.93207 5.66028 6.81097 5.538Z" fill="#516E95"/>
</svg>
