<svg width="19" height="19" viewBox="0 0 19 19" fill="none" xmlns="http://www.w3.org/2000/svg">
    <path d="M9.80688 18.7881C14.7774 18.7881 18.8069 14.7586 18.8069 9.78809C18.8069 4.81752 14.7774 0.788086 9.80688 0.788086C4.83632 0.788086 0.806885 4.81752 0.806885 9.78809C0.806885 14.7586 4.83632 18.7881 9.80688 18.7881Z" fill="#E7F0FF"/>
    <path d="M12.206 11.3121L10.471 9.57606L12.21 7.83906C12.271 7.78291 12.32 7.715 12.354 7.63943C12.3881 7.56386 12.4066 7.48218 12.4083 7.3993C12.41 7.31642 12.3949 7.23404 12.364 7.15713C12.3331 7.08022 12.2869 7.01035 12.2283 6.95173C12.1697 6.89311 12.0998 6.84695 12.0229 6.81602C11.946 6.78509 11.8636 6.77003 11.7807 6.77174C11.6978 6.77345 11.6162 6.7919 11.5406 6.82598C11.465 6.86006 11.3971 6.90907 11.341 6.97006L9.59997 8.70805L7.85896 6.97006C7.80281 6.90907 7.73491 6.86006 7.65934 6.82598C7.58377 6.7919 7.5021 6.77345 7.41921 6.77174C7.33633 6.77003 7.25395 6.78509 7.17704 6.81602C7.10013 6.84695 7.03026 6.89311 6.97164 6.95173C6.91302 7.01035 6.86686 7.08022 6.83593 7.15713C6.805 7.23404 6.78992 7.31642 6.79163 7.3993C6.79335 7.48218 6.8118 7.56386 6.84588 7.63943C6.87996 7.715 6.92898 7.78291 6.98997 7.83906L8.72897 9.57606L6.98997 11.3131C6.88247 11.4298 6.82426 11.5836 6.82754 11.7423C6.83082 11.901 6.89532 12.0522 7.00755 12.1645C7.11977 12.2767 7.27103 12.3412 7.42971 12.3445C7.58839 12.3478 7.74219 12.2895 7.85896 12.182L9.59997 10.4441L11.341 12.182C11.3971 12.243 11.465 12.2921 11.5406 12.3261C11.6162 12.3602 11.6978 12.3787 11.7807 12.3804C11.8636 12.3821 11.946 12.367 12.0229 12.3361C12.0998 12.3052 12.1697 12.259 12.2283 12.2004C12.2869 12.1418 12.3331 12.0719 12.364 11.995C12.3949 11.9181 12.41 11.8357 12.4083 11.7528C12.4066 11.6699 12.3881 11.5882 12.354 11.5127C12.32 11.4371 12.271 11.3692 12.21 11.3131L12.206 11.3121Z" fill="#1479FF"/>
</svg>
