<svg width="24" height="24" viewBox="0 0 24 24" fill="none" xmlns="http://www.w3.org/2000/svg">
<path d="M4.00076 8.15447H7.18606C7.29083 8.15376 7.39251 8.11881 7.47558 8.05495C7.55866 7.99109 7.6186 7.90182 7.64625 7.80074C7.67391 7.69965 7.66778 7.5923 7.62878 7.49502C7.58979 7.39775 7.52008 7.31589 7.43027 7.26191L6.94713 6.9754C7.42366 6.5029 7.77622 5.92004 7.9735 5.27856C8.17078 4.63707 8.20669 3.95679 8.07804 3.29809C7.94939 2.63939 7.66016 2.02265 7.23602 1.50258C6.81188 0.982516 6.26595 0.575219 5.64667 0.316833C5.02738 0.0584482 4.35391 -0.0430334 3.68601 0.0213944C3.0181 0.0858222 2.37643 0.314167 1.81793 0.686164C1.25943 1.05816 0.801375 1.56231 0.484417 2.15386C0.16746 2.74541 0.00140043 3.40608 0.000976562 4.07723C0.0117828 5.14208 0.434306 6.1614 1.17997 6.9215C1.92564 7.68161 2.93654 8.12348 4.00076 8.15447ZM5.4845 3.72602C5.55395 3.72602 5.62184 3.74661 5.67958 3.78521C5.73733 3.8238 5.78233 3.87865 5.80891 3.94283C5.83549 4.007 5.84244 4.07762 5.82889 4.14575C5.81534 4.21388 5.7819 4.27646 5.73279 4.32557C5.68369 4.37469 5.62112 4.40814 5.55301 4.42169C5.48489 4.43525 5.41429 4.42829 5.35013 4.40171C5.28597 4.37513 5.23113 4.33011 5.19254 4.27235C5.15396 4.2146 5.13337 4.14669 5.13337 4.07723C5.13337 3.98408 5.17036 3.89475 5.23621 3.82888C5.30206 3.76302 5.39138 3.72602 5.4845 3.72602ZM4.07864 3.72602C4.14809 3.72602 4.21598 3.74661 4.27372 3.78521C4.33146 3.8238 4.37647 3.87865 4.40305 3.94283C4.42962 4.007 4.43658 4.07762 4.42303 4.14575C4.40948 4.21388 4.37604 4.27646 4.32693 4.32557C4.27782 4.37469 4.21526 4.40814 4.14714 4.42169C4.07903 4.43525 4.00843 4.42829 3.94427 4.40171C3.8801 4.37513 3.82526 4.33011 3.78668 4.27235C3.7481 4.2146 3.7275 4.14669 3.7275 4.07723C3.7275 3.98431 3.76432 3.89518 3.82988 3.82935C3.89545 3.76352 3.98442 3.72637 4.07732 3.72602H4.07864ZM2.67278 3.72602C2.74222 3.72602 2.81011 3.74661 2.86786 3.78521C2.9256 3.8238 2.97061 3.87865 2.99718 3.94283C3.02376 4.007 3.03071 4.07762 3.01717 4.14575C3.00362 4.21388 2.97017 4.27646 2.92107 4.32557C2.87196 4.37469 2.80939 4.40814 2.74128 4.42169C2.67317 4.43525 2.60256 4.42829 2.5384 4.40171C2.47424 4.37513 2.4194 4.33011 2.38082 4.27235C2.34223 4.2146 2.32164 4.14669 2.32164 4.07723C2.32164 3.98431 2.35845 3.89518 2.42402 3.82935C2.48958 3.76352 2.57856 3.72637 2.67146 3.72602H2.67278Z" fill="#001444"/>
<path d="M23.6482 23.3015H23.2971V18.065C23.2964 17.3923 23.1006 16.7342 22.7335 16.1706C22.3663 15.6069 21.8435 15.1619 21.2285 14.8896L19.3805 14.0974C19.8341 13.9539 20.2433 13.6961 20.5685 13.3487C21.0734 12.8125 21.3564 12.1048 21.3605 11.3682C21.3603 10.7008 21.1215 10.0555 20.6873 9.54877C20.1358 8.8929 19.8334 8.06345 19.8332 7.20647V5.52434C19.8332 4.0592 19.2513 2.65406 18.2155 1.61804C17.1798 0.582027 15.7749 0 14.3101 0C12.8453 0 11.4405 0.582027 10.4047 1.61804C9.36888 2.65406 8.78698 4.0592 8.78698 5.52434V7.15498C8.773 8.04101 8.44988 8.89429 7.8735 9.56726C7.57434 9.92834 7.36895 10.3577 7.27558 10.8173C7.18221 11.2768 7.20374 11.7524 7.33826 12.2016C7.47278 12.6508 7.71612 13.0599 8.04669 13.3925C8.37725 13.725 8.78481 13.9708 9.23316 14.1079L7.39299 14.9081C6.76254 15.1723 6.22434 15.6171 5.84615 16.1867C5.46796 16.7562 5.2667 17.4249 5.2677 18.1086V22.2479C5.2677 22.3412 5.30476 22.4307 5.37074 22.4967C5.43671 22.5627 5.52619 22.5998 5.61949 22.5998C5.71279 22.5998 5.80228 22.5627 5.86825 22.4967C5.93423 22.4307 5.97129 22.3412 5.97129 22.2479V18.1073C5.96974 17.5629 6.12888 17.0302 6.42876 16.576C6.72864 16.1217 7.15591 15.7661 7.65701 15.5537L9.96315 14.5503V16.6628H8.9071C8.75937 16.6631 8.61334 16.6944 8.47846 16.7547C8.34357 16.815 8.22284 16.9029 8.12406 17.0128C8.02528 17.1227 7.95064 17.2521 7.90498 17.3926C7.85932 17.5332 7.84365 17.6817 7.85897 17.8287L8.43848 23.2963H0.351796C0.258494 23.2963 0.169013 23.3333 0.103039 23.3993C0.0370641 23.4653 0 23.5548 0 23.6481C0 23.7414 0.0370641 23.8309 0.103039 23.8969C0.169013 23.9629 0.258494 24 0.351796 24H23.6482C23.7415 24 23.831 23.9629 23.897 23.8969C23.9629 23.8309 24 23.7414 24 23.6481C24 23.5548 23.9629 23.4653 23.897 23.3993C23.831 23.3333 23.7415 23.2963 23.6482 23.2963V23.3015ZM19.1204 5.58376C18.1266 5.71641 17.1198 5.46159 16.3087 4.87209C16.2722 4.84383 16.2305 4.82303 16.186 4.81089C16.1414 4.79874 16.0949 4.79549 16.0492 4.80131C16.0034 4.80714 15.9592 4.82192 15.9191 4.84483C15.8791 4.86773 15.8439 4.89831 15.8156 4.93481C15.7874 4.97131 15.7666 5.01301 15.7544 5.05755C15.7423 5.10209 15.739 5.14858 15.7449 5.19437C15.7507 5.24017 15.7655 5.28436 15.7884 5.32444C15.8113 5.36452 15.8418 5.3997 15.8783 5.42796C16.3874 5.81618 16.9777 6.08429 17.605 6.21225V8.12675C17.4403 8.54059 17.171 8.90456 16.8235 9.18303C16.6455 9.32986 16.4494 9.45322 16.24 9.55009C16.1532 9.37992 16.0208 9.23722 15.8577 9.13791C15.6945 9.03859 15.507 8.98656 15.316 8.98762H14.4923C14.3539 8.98267 14.2159 9.00565 14.0866 9.05521C13.9572 9.10477 13.8392 9.17988 13.7395 9.27606C13.6399 9.37224 13.5606 9.48753 13.5065 9.61503C13.4523 9.74253 13.4244 9.87963 13.4244 10.0182C13.4244 10.1567 13.4523 10.2938 13.5065 10.4213C13.5606 10.5488 13.6399 10.6641 13.7395 10.7602C13.8392 10.8564 13.9572 10.9315 14.0866 10.9811C14.2159 11.0307 14.3539 11.0536 14.4923 11.0487H15.316C15.5437 11.0483 15.765 10.9726 15.9452 10.8334C16.1255 10.6942 16.2547 10.4992 16.3126 10.2789C16.7558 10.0559 17.171 9.78114 17.5495 9.46031C17.4298 10.091 17.0939 10.6603 16.5997 11.07C16.1055 11.4797 15.484 11.7042 14.8421 11.7049H13.6963C12.9695 11.7 12.274 11.4084 11.7611 10.8933C11.2481 10.3783 10.9592 9.68157 10.9572 8.95461V6.23601C12.1424 6.05233 13.2818 5.64408 14.3141 5.03317C15.61 4.26269 16.7052 3.19625 17.5099 1.92111C18.025 2.38057 18.4354 2.94539 18.7133 3.57731C18.9911 4.20923 19.13 4.89349 19.1204 5.58376ZM15.6513 10.0162C15.6509 10.1028 15.6163 10.1857 15.5549 10.2469C15.4936 10.308 15.4105 10.3423 15.3239 10.3423H14.5002C14.4127 10.3423 14.3287 10.3075 14.2668 10.2456C14.2049 10.1837 14.1702 10.0998 14.1702 10.0122C14.1702 9.92467 14.2049 9.84071 14.2668 9.77881C14.3287 9.7169 14.4127 9.68213 14.5002 9.68213H15.3239C15.3675 9.68212 15.4106 9.6908 15.4507 9.70767C15.4909 9.72453 15.5273 9.74925 15.5578 9.78036C15.5883 9.81146 15.6122 9.84834 15.6283 9.88884C15.6443 9.92933 15.6522 9.97262 15.6513 10.0162ZM10.0516 13.5243C9.64522 13.5241 9.24731 13.4082 8.90434 13.1902C8.56136 12.9722 8.28749 12.6611 8.11473 12.2932C7.94197 11.9253 7.87744 11.5159 7.92869 11.1126C7.97994 10.7094 8.14485 10.3291 8.40416 10.0162C9.08637 9.21769 9.46708 8.20523 9.48001 7.15498V6.27694H10.247V8.95461C10.2476 9.58031 10.4179 10.1941 10.7396 10.7307C11.0613 11.2673 11.5224 11.7067 12.0739 12.002C12.0403 12.2798 11.9347 12.5441 11.7675 12.7685C11.6003 12.9929 11.3774 13.1697 11.1208 13.2814L10.5611 13.5243H10.0516ZM14.454 21.6722C14.1899 21.672 13.9319 21.5934 13.7124 21.4466C13.493 21.2997 13.322 21.0911 13.221 20.8471C13.12 20.603 13.0936 20.3345 13.1451 20.0755C13.1965 19.8165 13.3236 19.5785 13.5102 19.3917C13.6968 19.2048 13.9346 19.0775 14.1936 19.0257C14.4525 18.974 14.7209 19.0001 14.965 19.1009C15.2091 19.2017 15.4178 19.3725 15.5649 19.5919C15.7119 19.8113 15.7907 20.0693 15.7912 20.3334C15.7914 20.509 15.757 20.683 15.6899 20.8453C15.6229 21.0077 15.5245 21.1552 15.4005 21.2795C15.2764 21.4039 15.1291 21.5025 14.9669 21.5699C14.8048 21.6373 14.6309 21.6721 14.4553 21.6722H14.454ZM17.8861 16.6668H10.6694V15.8099C11.8078 16.1087 12.98 16.2601 14.157 16.2601H14.3985C15.5783 16.2393 16.7505 16.0667 17.8861 15.7465V16.6668ZM17.8861 15.0124C16.7493 15.3516 15.5715 15.5342 14.3853 15.555C13.1299 15.5775 11.8779 15.4183 10.6681 15.0824V14.2453L10.7697 14.2017L11.3967 13.9284C11.7367 13.7816 12.0365 13.5551 12.2706 13.2681C12.5047 12.981 12.6663 12.6419 12.7419 12.2793C13.0552 12.3686 13.3797 12.4131 13.7055 12.4113H14.8513C15.1788 12.4113 15.5046 12.3646 15.8189 12.2727C15.8954 12.6334 16.0573 12.9705 16.2908 13.2558C16.5244 13.5412 16.823 13.7663 17.1614 13.9125L17.8307 14.199L17.8809 14.2202L17.8861 15.0124ZM18.0446 13.5243L17.4426 13.2603C17.1869 13.1507 16.9641 12.9764 16.7961 12.7547C16.6281 12.5329 16.5206 12.2712 16.4842 11.9954C17.0353 11.6997 17.4959 11.2602 17.8171 10.7237C18.1383 10.1871 18.3082 9.57344 18.3086 8.94801V6.30731C18.4115 6.31391 18.5145 6.31787 18.6161 6.31787C18.7846 6.31768 18.953 6.30799 19.1204 6.28883V7.20911C19.1206 8.23177 19.4814 9.2216 20.1395 10.0043C20.4665 10.3846 20.6467 10.8693 20.6477 11.3709C20.6448 11.9263 20.4322 12.4602 20.0524 12.8655C19.8534 13.0764 19.6131 13.2439 19.3464 13.3575C19.0797 13.4711 18.7925 13.5283 18.5026 13.5257L18.0446 13.5243ZM22.5935 23.2949H20.4721L21.0516 17.8274C21.067 17.6804 21.0513 17.5318 21.0056 17.3913C20.96 17.2508 20.8853 17.1214 20.7866 17.0115C20.6878 16.9016 20.567 16.8137 20.4322 16.7534C20.2973 16.6931 20.1513 16.6618 20.0035 16.6615H18.5897V14.5238L20.9474 15.5352C21.4369 15.7529 21.853 16.1078 22.1451 16.557C22.4372 17.0062 22.593 17.5305 22.5935 18.0663V23.2949Z" fill="#001444"/>
<path d="M14.4546 20.9682C14.8038 20.9682 15.0869 20.6851 15.0869 20.3359C15.0869 19.9867 14.8038 19.7036 14.4546 19.7036C14.1054 19.7036 13.8223 19.9867 13.8223 20.3359C13.8223 20.6851 14.1054 20.9682 14.4546 20.9682Z" fill="#001444"/>
</svg>
