<svg width="250" height="88" viewBox="0 0 250 88" fill="none" xmlns="http://www.w3.org/2000/svg">
<path d="M116.27 65.2423H109.502L109.563 43.4549L109.745 38.5389L106.513 42.2411L95.3562 54.0149L83.4052 43.0301L79.9302 38.9032L80.0518 44.6682V65.2423H73.1011V21.667L95.3562 44.1224L116.27 21.667V65.2423Z" fill="#ED72A9"/>
<path d="M153.097 55.1072C150.17 62.2076 144.194 65.7276 137.976 65.7276C129.318 65.7276 122.367 58.6271 122.367 50.0702C122.367 41.4521 129.318 34.3516 137.976 34.3516C146.573 34.3516 153.524 41.4521 153.524 50.0702C153.524 50.6147 153.524 51.2803 153.463 51.7694H128.342C129.132 56.442 133.037 60.0837 137.976 60.0837C141.756 60.0837 145.049 58.2628 146.634 55.1072H153.097ZM128.525 47.2177H147.489C147.306 46.7335 147.002 46.2495 146.82 45.7611C145.234 42.4233 141.942 39.935 137.979 39.935C133.833 39.935 130.479 42.5442 128.955 46.0642C128.769 46.489 128.585 46.8534 128.525 47.2177Z" fill="#ED72A9"/>
<path d="M171.938 35.2616C175.23 35.2616 178.34 36.2903 180.779 37.9925C181.326 38.416 181.877 38.9607 182.425 39.3885V22.7598H188.586V65.0577H182.427V61.4802C181.882 62.0156 181.289 62.5029 180.659 62.9367C178.091 64.685 175.051 65.6163 171.94 65.6071C163.586 65.6071 156.758 58.8098 156.758 50.3738C156.755 41.9984 163.584 35.2616 171.938 35.2616ZM171.938 60.144C177.364 60.144 182.425 55.835 182.425 50.3733C182.425 45.0324 177.364 40.7233 171.938 40.7233C166.51 40.7233 162.425 45.0324 162.425 50.3733C162.425 55.835 166.511 60.144 171.938 60.144Z" fill="#ED72A9"/>
<path d="M239.739 44.0612C239.739 56.3815 231.02 66.2129 218.158 66.2129C206.024 66.2129 196.145 56.3815 196.145 44.0612C196.145 31.8632 206.024 21.7886 218.158 21.7886C227.487 21.7886 232.487 25.6728 236.449 29.5565L231.142 33.6834C228.46 31.1952 224.436 28.4037 218.156 28.4037C209.802 28.4037 203.094 35.3832 203.094 44.0612C203.094 52.801 209.802 59.8409 218.156 59.8409C224.741 59.8409 230.472 55.8962 232.301 49.281H221.63V43.3333H239.739V44.0612Z" fill="#ED72A9"/>
<path d="M60.5433 33.3186C60.2059 38.5776 58.2066 43.5957 54.8313 47.6556C51.456 51.7154 46.8775 54.6091 41.7503 55.9229C41.4227 56.009 41.133 56.2009 40.9268 56.4685C40.7206 56.7362 40.6095 57.0644 40.611 57.4018V62.0376C40.6108 62.2376 40.6502 62.4357 40.7268 62.6204C40.8036 62.8052 40.916 62.9732 41.058 63.1147C41.2 63.2562 41.3685 63.3685 41.5541 63.4451C41.7397 63.5218 41.9385 63.5612 42.1394 63.5614H46.5027C46.9083 63.5611 47.2974 63.7213 47.5844 64.0065C47.8715 64.2918 48.0331 64.6789 48.0335 65.0826V72.2684C48.0331 72.6721 47.8715 73.0591 47.5844 73.3444C47.2974 73.6296 46.9083 73.7898 46.5027 73.7896H42.14C41.9392 73.7895 41.7403 73.8288 41.5547 73.9052C41.3691 73.9816 41.2005 74.0937 41.0585 74.2351C40.9165 74.3764 40.8039 74.5442 40.7271 74.729C40.6503 74.9137 40.6108 75.1116 40.611 75.3116V79.6562C40.6102 80.0596 40.4489 80.4462 40.1623 80.7314C39.8757 81.0165 39.4873 81.177 39.082 81.1776H31.8638C31.663 81.1777 31.4641 81.1385 31.2784 81.0622C31.0928 80.9858 30.9241 80.8738 30.7819 80.7325C30.6397 80.5913 30.5269 80.4235 30.4499 80.2388C30.3729 80.0542 30.3332 79.8562 30.3331 79.6562V75.3116C30.3331 75.1117 30.2936 74.9139 30.2169 74.7292C30.1401 74.5446 30.0276 74.3768 29.8856 74.2354C29.7437 74.0942 29.5752 73.982 29.3897 73.9055C29.2042 73.829 29.0054 73.7896 28.8047 73.7896H24.4395C24.2387 73.7898 24.0398 73.7506 23.8541 73.6742C23.6685 73.5979 23.4998 73.4858 23.3576 73.3446C23.2154 73.2033 23.1026 73.0356 23.0257 72.8509C22.9486 72.6663 22.9089 72.4683 22.9088 72.2684V65.0826C22.9089 64.8827 22.9486 64.6847 23.0257 64.5001C23.1026 64.3154 23.2154 64.1477 23.3576 64.0064C23.4998 63.8652 23.6685 63.7531 23.8541 63.6768C24.0398 63.6003 24.2387 63.5611 24.4395 63.5614H28.8047C29.0055 63.5611 29.2043 63.5216 29.3899 63.4449C29.5754 63.3683 29.744 63.256 29.8859 63.1145C30.0278 62.9731 30.1403 62.8051 30.2171 62.6203C30.2938 62.4356 30.3332 62.2375 30.3331 62.0376V57.3958C30.3342 57.1089 30.2535 56.8276 30.1002 56.5847C29.9469 56.3419 29.7274 56.1474 29.4673 56.024C29.3817 55.983 29.2924 55.9505 29.2004 55.9272C16.5125 52.6801 7.69967 39.817 11.0738 25.6064C13.2332 16.5138 20.4715 9.41215 29.6278 7.35777C34.582 6.24738 39.3665 6.59533 43.6326 8.05125C46.732 9.11183 49.5929 10.766 52.0539 12.9206C52.2103 13.0584 52.3368 13.2265 52.4253 13.4147C52.514 13.603 52.5629 13.8072 52.569 14.0151C52.5752 14.2228 52.5384 14.4297 52.4612 14.6228C52.3838 14.8159 52.2675 14.9912 52.1195 15.1378L46.4163 20.8162C46.1515 21.0832 45.7964 21.2427 45.4201 21.2637C45.0437 21.2848 44.673 21.1658 44.3797 20.93C43.7909 20.4475 43.1636 20.0134 42.5042 19.632C40.3941 18.4113 37.9985 17.7643 35.5578 17.7562C35.5304 17.7562 35.5006 17.7562 35.4733 17.7562C26.354 17.7562 19.2671 26.4252 22.0741 35.9309C23.0187 39.1216 25.1159 41.8515 27.962 43.5948C28.9875 44.2268 30.094 44.718 31.2517 45.0549C32.7367 45.4917 34.2809 45.6958 35.8289 45.66C38.8023 45.5898 41.6752 44.5753 44.0283 42.7645C44.0386 42.7561 44.0496 42.75 44.06 42.7415C45.195 41.8671 44.5536 40.0506 43.1158 40.0506H40.6074C40.2021 40.0505 39.8133 39.8901 39.5266 39.6049C39.24 39.3197 39.0787 38.9328 39.0784 38.5293V33.2278C39.0792 32.8247 39.2406 32.4383 39.5272 32.1534C39.8139 31.8686 40.2024 31.7086 40.6074 31.7084H59.0149C59.2234 31.708 59.4297 31.7501 59.6212 31.8321C59.8127 31.914 59.9853 32.0341 60.1285 32.185C60.2717 32.3357 60.3823 32.5141 60.4536 32.7091C60.525 32.9041 60.5554 33.1115 60.5433 33.3186Z" fill="#E72887"/>
<path d="M60.5433 33.3185C60.2059 38.5774 58.2066 43.5956 54.8313 47.6555C51.456 51.7153 46.8775 54.6089 41.7503 55.9227C41.4227 56.0089 41.133 56.2008 40.9268 56.4684C40.7206 56.7361 40.6096 57.0644 40.611 57.4017V62.0375C40.6108 62.2374 40.6502 62.4356 40.7269 62.6203C40.8035 62.8051 40.9161 62.9731 41.058 63.1146C41.2 63.2561 41.3686 63.3684 41.5541 63.445C41.7396 63.5216 41.9386 63.5611 42.1395 63.5613H46.5027C46.9083 63.561 47.2974 63.7212 47.5845 64.0064C47.8715 64.2917 48.033 64.6788 48.0335 65.0825V72.2683C48.033 72.672 47.8715 73.059 47.5845 73.3443C47.2974 73.6295 46.9083 73.7897 46.5027 73.7895H42.14C41.9392 73.7894 41.7404 73.8286 41.5548 73.905C41.3692 73.9815 41.2006 74.0936 41.0585 74.2349C40.9165 74.3763 40.804 74.5441 40.7271 74.7289C40.6504 74.9136 40.6109 75.1115 40.611 75.3115V76.7637C35.9679 71.638 32.4654 65.5935 30.3331 59.0264V57.3926C30.3343 57.1058 30.2535 56.8245 30.1002 56.5816C29.947 56.3387 29.7274 56.1442 29.4674 56.0208C28.4629 52.071 27.9565 48.0121 27.9596 43.9378C27.9596 43.8198 27.9596 43.7042 27.9596 43.5862C28.9851 44.2182 30.0917 44.7094 31.2493 45.0463C32.7343 45.4831 34.2785 45.6872 35.8265 45.6514C38.7999 45.5812 41.6728 44.5667 44.0259 42.7559C44.0362 42.7474 44.0472 42.7414 44.0575 42.733C45.1925 41.8585 44.5512 40.042 43.1134 40.042H40.6074C40.202 40.0419 39.8134 39.8815 39.5266 39.5963C39.24 39.311 39.0787 38.9241 39.0784 38.5208V33.2277C39.0792 32.8245 39.2407 32.4382 39.5272 32.1533C39.8139 31.8685 40.2024 31.7085 40.6074 31.7083H59.0149C59.2234 31.7079 59.4297 31.75 59.6212 31.8319C59.8128 31.9139 59.9854 32.034 60.1285 32.1849C60.2716 32.3356 60.3823 32.514 60.4536 32.709C60.5249 32.904 60.5555 33.1114 60.5433 33.3185Z" fill="#ED72A9"/>
</svg>
