<svg width="24" height="24" viewBox="0 0 24 24" fill="none" xmlns="http://www.w3.org/2000/svg">
<rect width="24" height="24" fill="white"/>
<path d="M18.9993 9.43283C18.9119 10.7039 18.3942 11.9167 17.52 12.898C16.6459 13.8792 15.4601 14.5786 14.1323 14.8961C14.0474 14.9169 13.9724 14.9633 13.919 15.028C13.8656 15.0927 13.8368 15.172 13.8372 15.2536V16.374C13.8372 16.4224 13.8474 16.4702 13.8672 16.5149C13.8871 16.5595 13.9162 16.6001 13.953 16.6343C13.9898 16.6685 14.0334 16.6957 14.0815 16.7142C14.1295 16.7327 14.181 16.7423 14.2331 16.7423H15.3631C15.4681 16.7422 15.5689 16.7809 15.6432 16.8499C15.7176 16.9188 15.7594 17.0124 15.7595 17.11V18.8467C15.7594 18.9443 15.7176 19.0378 15.6432 19.1068C15.5689 19.1757 15.4681 19.2144 15.3631 19.2144H14.2332C14.1812 19.2144 14.1297 19.2239 14.0816 19.2423C14.0336 19.2608 13.9899 19.2879 13.9531 19.3221C13.9164 19.3562 13.8872 19.3968 13.8673 19.4414C13.8474 19.4861 13.8372 19.5339 13.8372 19.5822V20.6323C13.837 20.7298 13.7952 20.8232 13.721 20.8922C13.6468 20.9611 13.5462 20.9999 13.4412 21H11.5719C11.5199 21 11.4683 20.9906 11.4202 20.9721C11.3722 20.9536 11.3285 20.9266 11.2917 20.8924C11.2548 20.8583 11.2256 20.8178 11.2057 20.7731C11.1857 20.7285 11.1754 20.6806 11.1754 20.6323V19.5822C11.1754 19.5339 11.1652 19.4861 11.1453 19.4415C11.1255 19.3969 11.0963 19.3563 11.0595 19.3221C11.0228 19.288 10.9791 19.2609 10.9311 19.2424C10.8831 19.2239 10.8316 19.2144 10.7796 19.2144H9.6491C9.5971 19.2144 9.54557 19.205 9.49748 19.1865C9.44942 19.168 9.40573 19.141 9.3689 19.1068C9.33208 19.0727 9.30287 19.0321 9.28294 18.9875C9.26299 18.9429 9.25269 18.895 9.25266 18.8467V17.11C9.25269 17.0616 9.26299 17.0138 9.28294 16.9692C9.30287 16.9245 9.33208 16.884 9.3689 16.8499C9.40573 16.8157 9.44942 16.7886 9.49748 16.7702C9.54557 16.7517 9.5971 16.7422 9.6491 16.7423H10.7796C10.8316 16.7422 10.8831 16.7327 10.9312 16.7141C10.9792 16.6956 11.0229 16.6685 11.0596 16.6343C11.0964 16.6001 11.1255 16.5595 11.1454 16.5149C11.1653 16.4702 11.1754 16.4223 11.1754 16.374V15.2521C11.1757 15.1828 11.1548 15.1148 11.1151 15.0561C11.0754 14.9974 11.0186 14.9504 10.9512 14.9206C10.929 14.9107 10.9059 14.9028 10.8821 14.8972C7.59615 14.1124 5.31378 11.0034 6.1876 7.56884C6.74687 5.37124 8.62146 3.65481 10.9928 3.15828C12.2758 2.88991 13.5149 2.974 14.6198 3.32589C15.4224 3.58222 16.1634 3.98203 16.8007 4.50278C16.8412 4.53607 16.874 4.57671 16.8969 4.6222C16.9199 4.66771 16.9325 4.71707 16.9341 4.76731C16.9357 4.81752 16.9262 4.8675 16.9062 4.91419C16.8862 4.96085 16.856 5.00322 16.8177 5.03866L15.3407 6.41109C15.2721 6.47562 15.1801 6.51416 15.0827 6.51924C14.9852 6.52433 14.8892 6.49559 14.8132 6.43858C14.6608 6.32197 14.4983 6.21705 14.3275 6.12487C13.781 5.82983 13.1606 5.67348 12.5285 5.6715C12.5214 5.6715 12.5137 5.6715 12.5066 5.6715C10.1449 5.6715 8.30953 7.76673 9.03649 10.0642C9.28112 10.8354 9.82427 11.4952 10.5614 11.9165C10.8269 12.0693 11.1135 12.188 11.4133 12.2694C11.7979 12.375 12.1978 12.4243 12.5987 12.4157C13.3688 12.3987 14.1128 12.1535 14.7222 11.7158C14.7249 11.7138 14.7278 11.7123 14.7304 11.7103C15.0244 11.4989 14.8583 11.0599 14.4859 11.0599H13.8363C13.7313 11.0599 13.6306 11.0211 13.5564 10.9522C13.4821 10.8832 13.4404 10.7897 13.4403 10.6922V9.41089C13.4405 9.31347 13.4823 9.22007 13.5565 9.15121C13.6308 9.08238 13.7314 9.04369 13.8363 9.04365H18.6035C18.6575 9.04357 18.7109 9.05374 18.7605 9.07356C18.8101 9.09336 18.8548 9.12237 18.8919 9.15884C18.929 9.19528 18.9576 9.23839 18.9761 9.28553C18.9946 9.33264 19.0025 9.38277 18.9993 9.43283Z" fill="#E72887"/>
</svg>
